<?xml version="1.0" encoding="utf-8"?>
<!-- Generator: Adobe Illustrator 26.0.1, SVG Export Plug-In . SVG Version: 6.00 Build 0)  -->
<svg version="1.1" id="Lag_1" xmlns="http://www.w3.org/2000/svg" xmlns:xlink="http://www.w3.org/1999/xlink" x="0px" y="0px"
	 viewBox="0 0 64 105.6" style="enable-background:new 0 0 64 105.6;" xml:space="preserve">
<style type="text/css">
	.st0{display:none;}
	.st1{fill-rule:evenodd;clip-rule:evenodd;fill:#FFFFFF;}
</style>
<rect x="0" y="0.3" class="st0" width="64" height="105"/>
<path id="icon_arrowBigRight" class="st1" d="M54.5,75.9l-2.2-2.2H48L32,96.2L20.2,79.5h8.9l2.9,3.6l5.8-8.7l-0.7-0.7H11.7l-2.2,2.2
	l21.8,29.7h1.5L54.5,75.9z"/>
<rect x="27" y="26" class="st1" width="10" height="25"/>
<path id="Rectangle_851_copy" class="st1" d="M59.3,48.7l-0.4,10.2l-10.2,0.4c-10.2,6.3-23.1,6.3-33.4,0L5.1,58.9L4.7,48.7
	c-6.3-10.2-6.3-23.1,0-33.4L5.1,5.1l10.2-0.4c10.2-6.3,23.1-6.3,33.4,0l10.2,0.4l0.4,10.2C65.6,25.6,65.6,38.4,59.3,48.7z M32,6
	C17.6,6,6,17.6,6,32s11.7,26,26,26s26-11.7,26-26S46.4,6,32,6z"/>
<circle class="st1" cx="32" cy="16.2" r="6"/>
</svg>
