<?xml version="1.0" encoding="utf-8"?>
<!-- Generator: Adobe Illustrator 26.0.1, SVG Export Plug-In . SVG Version: 6.00 Build 0)  -->
<svg version="1.1" id="Lag_1" xmlns="http://www.w3.org/2000/svg" xmlns:xlink="http://www.w3.org/1999/xlink" x="0px" y="0px"
	 viewBox="0 0 50 50" style="enable-background:new 0 0 50 50;" xml:space="preserve">
<style type="text/css">
	.st0{display:none;}
	.st1{fill:#FFFFFF;}
</style>
<rect class="st0" width="50" height="50"/>
<g>
	<path class="st1" d="M24.9,8.8c2-1.4,4.4-2.3,7-2.3c6.5,0,11.8,5.2,12.1,11.6l6-0.6C49.4,8,41.6,0.5,31.9,0.5C26.3,0.5,21.3,3,18,7
		L24.9,8.8z"/>
	<path class="st1" d="M43.9,19.8c-0.6,6.1-5.8,10.9-12,10.9c-6.7,0-12.1-5.4-12.1-12.1c0-2.2,0.6-4.3,1.6-6.1l-4.7-4
		c-1.9,2.9-3,6.3-3,10c0,10,8.1,18.1,18.1,18.1c8.9,0,16.2-6.3,17.8-14.7L43.9,19.8z"/>
</g>
<polygon class="st1" points="1.3,43.5 3.6,49.6 23.3,32.3 17.7,26.7 "/>
</svg>
